<svg width="482" height="266" viewBox="0 0 482 266" fill="none" xmlns="http://www.w3.org/2000/svg">
<g clip-path="url(#clip0_1_2)">
<g filter="url(#filter0_f_1_2)">
<rect x="-36" y="-36" width="554" height="338" fill="url(#paint0_linear_1_2)"/>
</g>
<g clip-path="url(#clip1_1_2)">
<path d="M130 134.982C130 153.364 115.449 165.5 97.5 165.5C79.5513 165.5 65 153.553 65 134.982C65 116.414 79.6207 102.667 97.5693 102.667C115.518 102.667 130 116.6 130 134.982Z" fill="url(#paint1_radial_1_2)"/>
<path d="M97.5433 162.792C93.4787 162.792 89.5202 162.087 85.7783 160.701C82.2429 159.405 78.9696 157.484 76.115 155.028C73.2962 152.593 71.0753 149.766 69.5132 146.626C67.9041 143.441 67.062 139.924 67.054 136.356C67.054 129.423 70.304 123.07 76.2082 118.466C81.8502 114.063 89.427 111.639 97.5433 111.639C105.66 111.639 113.237 114.063 118.879 118.464C124.783 123.07 128.033 129.425 128.033 136.358C128.033 139.89 127.205 143.346 125.574 146.628C124.011 149.766 121.791 152.593 118.974 155.031C116.119 157.485 112.846 159.406 109.311 160.701C105.544 162.092 101.559 162.8 97.5433 162.792Z" fill="url(#paint2_radial_1_2)"/>
<path d="M97.5433 162.059C93.5675 162.059 89.6935 161.373 86.0318 160.016C82.5783 158.752 79.3806 156.876 76.5917 154.478C73.8487 152.106 71.6885 149.354 70.1675 146.301C68.5858 143.123 67.7842 139.78 67.7842 136.356C67.7842 129.655 70.9367 123.506 76.6588 119.042C82.173 114.737 89.5873 112.369 97.5455 112.369C105.497 112.369 112.914 114.739 118.43 119.042C124.15 123.506 127.302 129.674 127.302 136.358C127.302 139.777 126.501 143.123 124.919 146.301C123.402 149.356 121.24 152.106 118.495 154.478C115.707 156.876 112.51 158.752 109.057 160.016C105.395 161.373 101.521 162.059 97.5433 162.059Z" fill="url(#paint3_radial_1_2)"/>
<mask id="mask0_1_2" style="mask-type:luminance" maskUnits="userSpaceOnUse" x="68" y="112" width="59" height="50">
<path d="M97.5433 161.622C93.6668 161.631 89.8199 160.948 86.1835 159.604C82.779 158.358 79.6268 156.508 76.8777 154.144C74.178 151.811 72.0525 149.107 70.5597 146.106C69.0318 143.083 68.232 139.744 68.224 136.356C68.224 129.791 71.3158 123.768 76.9275 119.387C82.3658 115.144 89.687 112.809 97.5433 112.809C105.4 112.809 112.721 115.144 118.159 119.387C123.771 123.766 126.863 129.793 126.863 136.358C126.863 139.71 126.076 142.988 124.525 146.106C123.032 149.107 120.907 151.811 118.209 154.144C115.46 156.509 112.308 158.358 108.903 159.604C105.267 160.947 101.42 161.629 97.5433 161.619V161.622Z" fill="white"/>
</mask>
<g mask="url(#mask0_1_2)">
<path d="M98.6873 161.622L68.224 138.265V127.549L68.8415 126.745L113.876 161.271L113.605 161.622H98.6873ZM68.224 138.265L98.6873 161.622H88.257L68.224 146.26V138.265ZM68.224 146.26L88.257 161.622H68.224V146.26ZM69.8078 125.484L114.84 160.007L113.876 161.264L68.8415 126.745L69.8078 125.488V125.484ZM70.083 125.124L115.117 159.648L115.024 159.767L114.933 159.888L114.84 160.007L69.8078 125.484L69.8988 125.362L69.992 125.243L70.083 125.124ZM70.4513 124.645L115.486 159.169L115.395 159.288L115.301 159.407L115.21 159.529L115.117 159.648L70.0852 125.124L70.174 125.005L70.3582 124.767L70.4513 124.645ZM70.7287 124.283L115.761 158.807L115.67 158.928L115.576 159.048L115.486 159.169L70.4513 124.645L70.5445 124.524L70.6377 124.405L70.7287 124.283ZM71.097 123.805L116.131 158.328L116.038 158.447L115.947 158.569L115.633 158.328L115.947 158.567L115.854 158.688L115.761 158.807L70.7287 124.283L70.8218 124.164L70.9128 124.045L71.006 123.924L71.097 123.805ZM71.6517 123.085L116.684 157.609L116.59 157.728L116.5 157.847L116.406 157.966L116.315 158.088L116.224 158.207L116.131 158.328L71.0992 123.805L71.1902 123.685L71.2833 123.564L71.3743 123.445L71.4653 123.324L71.5585 123.204L71.6517 123.085ZM72.02 122.604L117.052 157.128L116.961 157.249L116.868 157.368L116.775 157.488L116.684 157.609L71.6473 123.085L71.7405 122.964L71.8337 122.845L71.9247 122.726L72.02 122.604ZM72.2952 122.245L117.329 156.768L117.236 156.887L117.145 157.009L117.052 157.128L72.02 122.604L72.111 122.485L72.2042 122.364L72.2952 122.245ZM72.6635 121.766L117.698 156.29L117.604 156.409L117.514 156.528L117.42 156.647L117.329 156.768L72.2952 122.245L72.3883 122.125L72.4793 122.004L72.7935 122.242L72.4815 122.004L72.5725 121.885L72.6635 121.766ZM73.3092 120.925L118.341 155.449L118.25 155.568L118.157 155.689L118.066 155.808L117.973 155.928L117.882 156.049L117.789 156.168L117.698 156.287L72.6635 121.766L72.7567 121.644L72.8498 121.525L72.9408 121.404L73.0318 121.285L73.125 121.166L73.216 121.044L73.3092 120.925ZM73.5865 120.565L118.619 155.089L118.528 155.208L118.434 155.327L118.341 155.449L73.3092 120.925L73.4023 120.806L73.4933 120.685L73.5865 120.565ZM73.9548 120.084L118.987 154.608L118.896 154.727L118.803 154.849L118.712 154.968L118.619 155.089L73.5865 120.565L73.6775 120.444L73.7707 120.325L73.8617 120.206L73.9548 120.084ZM74.6005 119.246L119.632 153.77L119.542 153.889L119.448 154.008L119.357 154.129L119.264 154.248L74.23 119.725L74.3232 119.606L74.4163 119.484L74.5073 119.365L74.6005 119.246ZM76.167 117.207L121.199 151.729L121.108 151.85L121.015 151.969L120.924 152.088L75.8897 117.565L75.9828 117.445L76.0738 117.326L76.167 117.207ZM79.391 113.004L124.427 147.53L124.334 147.651L124.241 147.77L124.15 147.889L124.057 148.008L79.0227 113.485L79.1158 113.366L79.2068 113.246L79.3 113.127L79.391 113.004ZM99.5215 112.809L126.861 133.769V134.15L99.0253 112.809H99.5237H99.5215ZM119.173 154.368L119.08 154.489L118.987 154.608L73.9548 120.084L74.0458 119.965L74.139 119.844L74.23 119.725L119.264 154.248L119.173 154.368ZM119.723 153.648L119.632 153.77L74.5983 119.244L74.6915 119.122L74.7847 119.003L74.8757 118.884L119.908 153.408L119.817 153.527L119.723 153.646V153.648ZM120.185 153.048L120.094 153.169L120.001 153.289L119.908 153.408L74.8757 118.884L74.9688 118.765L75.0598 118.646L75.153 118.524L75.244 118.405L120.278 152.929L120.185 153.048ZM120.369 152.81L120.278 152.929L75.244 118.405L75.3372 118.286L75.4282 118.165L75.5213 118.046L120.553 152.567L120.462 152.686L120.369 152.81L119.743 152.327L120.371 152.808L120.369 152.81ZM120.737 152.329L120.646 152.448L120.553 152.567L75.5213 118.046L75.6123 117.924L75.7055 117.805L75.7987 117.686L75.8897 117.565L120.922 152.09L120.831 152.212L120.737 152.329ZM121.383 151.488L121.29 151.61L121.199 151.729L76.167 117.207L76.258 117.088L76.349 116.967L76.8192 117.328L76.3512 116.969L76.4422 116.847L121.474 151.371L121.383 151.493V151.488ZM121.751 151.009L121.66 151.129L121.567 151.25L121.474 151.371L76.4422 116.847L76.5353 116.726L76.6263 116.605L76.7195 116.486L76.8105 116.366L121.845 150.89L121.751 151.009ZM121.936 150.771L121.845 150.89L76.8105 116.366L76.9037 116.245L77.2178 116.486L76.9037 116.247L76.9968 116.126L77.0878 116.007L122.12 150.53L122.029 150.65L121.936 150.771ZM122.304 150.288L122.213 150.409L122.12 150.53L77.0878 116.007L77.1788 115.885L77.272 115.766L77.3652 115.645L77.4562 115.526L122.488 150.049L122.397 150.169L122.306 150.29L121.992 150.049L122.304 150.288ZM122.581 149.928L122.488 150.049L77.4562 115.526L77.5493 115.404L77.8613 115.645L77.5493 115.407L77.6403 115.287L77.7335 115.166L122.766 149.69L122.675 149.809L122.581 149.928ZM122.95 149.451L122.859 149.568L122.766 149.69L77.7335 115.166L77.8267 115.047L77.9198 114.926L78.0108 114.806L78.104 114.685L123.134 149.209L123.041 149.33L122.95 149.449V149.451ZM123.318 148.971L123.227 149.09L123.134 149.209L78.104 114.685L78.1907 114.566L78.2838 114.447L78.3792 114.325L123.409 148.849L123.318 148.971L123.002 148.73L123.316 148.968L123.318 148.971ZM123.502 148.73L123.411 148.849L78.3792 114.325L78.4723 114.206L78.5655 114.087L78.6565 113.966L78.7497 113.847L123.777 148.37L123.684 148.489L123.593 148.609L123.5 148.73H123.502ZM123.964 148.13L123.871 148.249L123.78 148.368L78.7453 113.844L78.8407 113.725L78.9273 113.606L79.0205 113.487L124.059 148.008L123.964 148.13L123.34 147.651L123.966 148.128L123.964 148.13ZM126.861 135.104V135.485V136.438V136.82V137.773L126.863 138.154L126.861 139.108V139.489V140.442V140.824V141.777V142.158V143.112V143.491V144.36L126.819 144.414L126.728 144.533L126.635 144.657L126.544 144.776L126.451 144.897L126.267 145.135L126.176 145.257L126.083 145.376L125.989 145.495L125.898 145.616L125.805 145.736L125.714 145.855L125.623 145.976L125.53 146.095L125.437 146.217L125.346 146.336L125.253 146.455L125.162 146.576L125.069 146.695L124.978 146.815L124.884 146.936L124.793 147.055L124.7 147.176L124.607 147.296L124.516 147.415L124.425 147.532L79.391 113.004L79.4842 112.887L79.547 112.809H86.0968H89.8257H91.5655H94.0528H96.538H99.0253L126.861 134.15V135.104ZM105.241 112.809H126.861V129.765V131.1V132.434V132.816V133.769L99.5215 112.809H99.7707H102.009H104.496H105.241Z" fill="url(#paint4_linear_1_2)"/>
</g>
<path d="M97.5433 161.73C93.6065 161.73 89.7715 161.05 86.1467 159.708C82.7301 158.457 79.5668 156.6 76.8083 154.227C74.0957 151.885 71.9637 149.168 70.4643 146.154C68.9289 143.116 68.1246 139.762 68.1157 136.358C68.1157 129.759 71.2205 123.701 76.8603 119.3C82.3182 115.043 89.6632 112.701 97.5433 112.701C105.424 112.701 112.769 115.045 118.226 119.3C123.866 123.701 126.971 129.759 126.971 136.358C126.963 139.762 126.159 143.116 124.625 146.154C123.125 149.168 120.989 151.885 118.281 154.227C115.522 156.6 112.359 158.457 108.942 159.708C105.294 161.055 101.435 161.741 97.5455 161.732L97.5433 161.73ZM97.5433 112.919C89.7108 112.919 82.4135 115.246 76.9968 119.473C71.4112 123.831 68.3345 129.828 68.3345 136.358C68.3345 139.693 69.1167 142.956 70.6593 146.058C72.1457 149.046 74.2625 151.739 76.9513 154.062C79.6909 156.417 82.8321 158.259 86.2247 159.5C89.8213 160.835 93.6325 161.511 97.5433 161.511C101.456 161.511 105.265 160.835 108.864 159.503C112.257 158.261 115.398 156.419 118.138 154.064C120.824 151.739 122.941 149.044 124.427 146.058C125.948 143.051 126.744 139.729 126.752 136.358C126.752 129.828 123.676 123.831 118.092 119.473C112.675 115.249 105.374 112.919 97.5433 112.919Z" fill="#6374A7"/>
<mask id="mask1_1_2" style="mask-type:luminance" maskUnits="userSpaceOnUse" x="69" y="115" width="57" height="47">
<path d="M97.5433 161.622C93.821 161.622 90.1983 160.976 86.7728 159.706C83.545 158.525 80.5563 156.771 77.9502 154.53C75.3913 152.32 73.3763 149.755 71.9615 146.91C70.5123 144.044 69.7532 140.879 69.745 137.667C69.745 131.444 72.6765 125.729 77.9957 121.577C83.1523 117.556 90.0922 115.342 97.5433 115.342C104.992 115.342 111.932 117.556 117.087 121.577C122.41 125.729 125.34 131.442 125.34 137.667C125.331 140.879 124.572 144.044 123.123 146.91C121.708 149.755 119.693 152.318 117.134 154.53C114.528 156.772 111.54 158.526 108.312 159.708C104.888 160.976 101.264 161.619 97.5433 161.619V161.622Z" fill="white"/>
</mask>
<g mask="url(#mask1_1_2)">
<path d="M84.955 114.759V115.268H85.0503L85.2107 114.828V115.268H85.3298C85.3732 115.142 85.4187 115.019 85.4663 114.895V115.268H85.6093L85.7198 114.965V115.268H85.8888L85.9755 115.034V115.268H86.1705L86.2312 115.101V115.268H86.45L86.4868 115.168V115.268H86.7295L86.7425 115.238V115.268H87.0112L87.0545 115.151L87.113 114.999V115.268H87.295L87.49 114.763V115.268H87.5767C87.6287 115.125 87.685 114.982 87.7413 114.839V115.268H87.8562C87.8995 115.149 87.9472 115.03 87.9948 114.913V115.268H88.1378L88.2462 114.986V115.268H88.4195L88.4997 115.064V115.268H89.3057L89.3317 115.205L89.4075 115.021V115.268H90.1962L90.3067 114.997V115.268H91.0867L91.0932 115.255V115.268H91.9837L92.092 115.021V115.268H92.8828L92.9392 115.142L93.0843 114.83V115.268H93.7863L93.8513 115.131V115.268H94.6963L94.8263 115.008V115.268H95.6107L95.6475 115.194L95.7862 114.928V115.268H96.5337C96.5992 115.142 96.6663 115.017 96.7352 114.893V115.268H97.4632L97.4697 115.257V115.268H98.4035C98.4663 115.164 98.527 115.06 98.592 114.958V115.268H99.359L99.3633 115.259L99.4933 115.056V115.268H100.33L100.377 115.196V115.268H101.322L101.43 115.121V115.268H102.343L102.444 115.14V115.268H103.406L103.415 115.257V115.268H104.531C104.577 115.222 104.624 115.177 104.672 115.131V115.268H105.759L105.833 115.209V115.268H107.198C107.506 115.084 107.82 114.921 108.138 114.785V115.268H109.382L109.512 115.235C110.417 115.02 111.362 115.031 112.262 115.268H113.926V114.936C114.099 115.036 114.268 115.147 114.435 115.268H115.626V115.021C115.713 115.101 115.795 115.183 115.876 115.268H116.825V114.906C116.922 115.023 117.017 115.144 117.106 115.268H118.049V114.973C118.114 115.069 118.174 115.168 118.233 115.268H119.277V115.229L119.297 115.268H120.285V115.19L120.317 115.266H121.301V115.24L121.31 115.266H122.111V114.8C122.17 114.952 122.226 115.11 122.28 115.268H123.143V114.978C123.175 115.073 123.203 115.17 123.234 115.268H124.17V115.246L124.174 115.268H125.006V114.884L125.103 115.268H125.413V116.997C125.57 118.323 125.57 119.664 125.413 120.99V124.262H125.587C125.531 124.443 125.474 124.624 125.413 124.803V126.142H125.803C125.68 126.451 125.55 126.757 125.413 127.059V128.17H125.79C125.669 128.409 125.545 128.647 125.415 128.885V130.324H125.522L125.413 130.495V131.665H125.623L125.415 131.969V133.074H125.623L125.415 133.349V134.527H125.524L125.415 134.657V135.539H125.74L125.415 135.916V136.575H125.922C125.756 136.763 125.587 136.948 125.415 137.132V137.24H125.669C125.611 137.302 125.554 137.363 125.496 137.424H125.851C125.707 137.58 125.562 137.734 125.415 137.886V138.096H125.574L125.415 138.258V138.284H125.753L125.415 138.631V138.958H125.45L125.415 138.995V139.153H125.623L125.426 139.348H125.797L125.415 139.721V140.031H125.465L125.415 140.081V140.232H125.632L125.422 140.432H125.801L125.415 140.791V141.121H125.441L125.415 141.142V141.324H125.604L125.415 141.493V141.53H125.762C125.648 141.636 125.532 141.74 125.415 141.842V141.985H125.652C125.572 142.055 125.493 142.124 125.413 142.193V142.438H125.53L125.415 142.538V142.648H125.686L125.441 142.858H125.842L125.415 143.227V143.777H125.567L125.415 143.905V143.994H125.719L125.457 144.21H125.868C125.717 144.334 125.567 144.457 125.413 144.579V144.674H125.714L125.415 144.914V145.142H125.552L125.415 145.25V145.363H125.697C125.603 145.437 125.51 145.511 125.415 145.584H125.84L125.415 145.918V146.056H125.665L125.415 146.247V146.529H125.48L125.415 146.578V146.752H125.619L125.415 146.906V146.975H125.76L125.461 147.2H125.896L125.415 147.562V147.679H125.697C125.603 147.749 125.51 147.818 125.415 147.887V148.16H125.489L125.415 148.212V148.388H125.621L125.415 148.539V148.617H125.756L125.437 148.847H125.888L125.415 149.185V149.332H125.662L125.415 149.506V149.818H125.431L125.415 149.828V150.052H125.558L125.415 150.149V150.283H125.684C125.595 150.346 125.505 150.408 125.415 150.47V150.517H125.812L125.415 150.788V151.009H125.563L125.415 151.109V151.243H125.686L125.415 151.425V151.735H125.426L125.415 151.742V151.973H125.545L125.415 152.06V152.212H125.669C125.585 152.268 125.5 152.323 125.415 152.379V152.448H125.788L125.428 152.686H125.909L125.415 153.007V153.185H125.63L125.413 153.323V153.423H125.749L125.413 153.64V153.926H125.457L125.413 153.952V154.166H125.569L125.413 154.264V154.407H125.684L125.413 154.576V154.647H125.803L125.415 154.888H125.916C125.749 154.994 125.582 155.098 125.413 155.2V155.395H125.604L125.413 155.512V155.639H125.717L125.413 155.824V155.882H125.827L125.415 156.133V156.393H125.502L125.415 156.443V156.636H125.61L125.342 156.796V161.619H113.845C113.455 161.721 113.063 161.817 112.671 161.908V161.691L112.355 161.693C111.826 161.81 111.295 161.916 110.762 162.012V161.726C110.134 161.838 109.506 161.936 108.877 162.018V161.736C107.638 161.897 106.399 161.996 105.164 162.035C103.084 162.1 101.019 161.988 98.9885 161.693H97.747V161.788L97.6603 161.771V162.074C97.0497 161.964 96.4421 161.836 95.8382 161.693H95.7515V161.977C95.29 161.869 94.8328 161.749 94.3778 161.619H69.745V115.342H71.9983L72.0677 115.103V115.268H72.2952L72.3298 115.149V115.268H72.5703L72.592 115.192V115.268H72.8477L72.8563 115.235V115.268H73.1228L73.2615 114.796V115.268H73.398L73.5258 114.843V115.268H73.6753L73.788 114.889V115.268H73.9505L74.0502 114.936V115.268H74.2278L74.3102 114.986V115.268H74.503L74.5723 115.032V115.268H74.7803L74.8367 115.079V115.268H75.0555L75.0988 115.127V115.268H75.3328L75.3588 115.175V115.268H75.608L75.621 115.222V115.266H75.8853L75.9525 115.045L76.0218 114.819V115.268H76.1605L76.1908 115.166L76.284 114.869V115.268H76.4357L76.4768 115.142L76.544 114.921V115.268H76.7152L76.804 114.973V115.268H76.9925L76.999 115.242L77.0662 115.025V115.268H77.2677L77.3283 115.073V115.268H77.545L77.5883 115.125V115.268H77.8223L77.8505 115.175V115.268H78.0975L78.2448 114.804V115.268H78.3748L78.5048 114.861V115.268H78.6522C78.689 115.149 78.7258 115.03 78.7648 114.915V115.268H78.9295L79.0248 114.969V115.268H79.2068L79.2848 115.023V115.268H79.4842L79.5448 115.077V115.268H79.7615L79.8048 115.131V115.268H80.0388L80.0648 115.186V115.268H80.3162L80.3248 115.24V115.268H80.5935L80.626 115.164L80.7127 114.904V115.268H80.873L80.8882 115.22L80.9748 114.96V115.268H81.1482L81.1698 115.212L81.2305 115.021V115.268H81.4255L81.4905 115.079V115.268H81.705C81.7613 115.099 81.8177 114.93 81.8783 114.761V115.268H81.9823L82.134 114.822V115.268H82.2618L82.3918 114.882V115.268H82.5392L82.6518 114.943V115.268H82.8165L82.9075 115.006V115.266H83.096L83.1653 115.066V115.268H83.3755L83.4232 115.125V115.266H83.655L83.681 115.188V115.266H83.9323L83.9388 115.248V115.266H84.2118L84.2573 115.138L84.318 114.965V115.266H84.4913L84.4935 115.257C84.5204 115.182 84.5479 115.107 84.5758 115.032V115.266H84.7708V115.261L84.955 114.757V114.759Z" fill="#6374A7"/>
</g>
<path d="M97.5433 161.695C93.8598 161.703 90.2044 161.054 86.749 159.778C83.5131 158.594 80.5171 156.836 77.9047 154.589C75.3372 152.37 73.3157 149.798 71.8965 146.945C70.4425 144.068 69.6812 140.892 69.6735 137.669C69.6735 131.423 72.6137 125.687 77.9545 121.521C83.122 117.491 90.0792 115.27 97.5433 115.27C105.01 115.27 111.965 117.489 117.134 121.521C122.473 125.687 125.413 131.423 125.413 137.669C125.405 140.891 124.644 144.067 123.19 146.942C121.771 149.798 119.75 152.37 117.184 154.589C114.571 156.835 111.575 158.593 108.34 159.778C104.884 161.054 101.227 161.703 97.5433 161.695ZM97.5433 115.415C90.1117 115.415 83.1848 117.625 78.0433 121.638C72.7393 125.776 69.8187 131.468 69.8187 137.669C69.8187 140.835 70.5618 143.933 72.0287 146.877C73.437 149.716 75.4477 152.272 78 154.478C80.5985 156.713 83.5783 158.462 86.7967 159.641C90.2157 160.907 93.8297 161.548 97.5433 161.548C101.255 161.548 104.869 160.907 108.286 159.641C111.506 158.463 114.487 156.714 117.087 154.478C119.637 152.272 121.648 149.716 123.058 146.88C124.502 144.024 125.258 140.869 125.266 137.669C125.266 131.468 122.345 125.774 117.041 121.636C111.9 117.627 104.973 115.417 97.5412 115.417L97.5433 115.415Z" fill="white"/>
<path d="M124.137 137.669C124.137 149.883 112.231 160.419 97.5433 160.419C82.8577 160.419 70.9497 149.883 70.9497 137.669C70.9497 125.456 82.8577 116.544 97.5433 116.544C112.231 116.544 124.137 125.456 124.137 137.669Z" fill="url(#paint5_radial_1_2)"/>
<path d="M104.275 143.71C104.275 146.607 101.281 149.012 97.5867 149.012C93.8925 149.012 90.8982 146.607 90.8982 143.71C90.8982 140.815 93.8925 142.652 97.5867 142.652C101.281 142.652 104.275 140.813 104.275 143.71Z" fill="#4DE9FE"/>
<path d="M104.275 143.411C104.275 146.306 101.281 148.711 97.5867 148.711C93.8925 148.711 90.8982 146.306 90.8982 143.411C90.8982 140.517 93.8925 142.354 97.5867 142.354C101.281 142.354 104.275 140.512 104.275 143.411Z" fill="url(#paint6_radial_1_2)"/>
<mask id="mask2_1_2" style="mask-type:luminance" maskUnits="userSpaceOnUse" x="81" y="130" width="7" height="10">
<path d="M84.292 139.39C85.978 139.39 87.3448 137.345 87.3448 134.822C87.3448 132.3 85.978 130.255 84.292 130.255C82.606 130.255 81.2392 132.3 81.2392 134.822C81.2392 137.345 82.606 139.39 84.292 139.39Z" fill="white"/>
</mask>
<g mask="url(#mask2_1_2)">
<path d="M81.2392 139.422H87.347V139.481H81.2392V139.422ZM81.2392 139.16H87.347V139.377H81.2392V139.16ZM81.2392 138.402H87.347V139.16H81.2392V138.402ZM87.347 138.408H81.2392V138.191H87.347V138.408ZM87.347 138.191H81.2392V130.255H87.347V138.191Z" fill="#20C7F5"/>
</g>
<path d="M84.292 139.108C85.978 139.108 87.3448 137.063 87.3448 134.541C87.3448 132.018 85.978 129.973 84.292 129.973C82.606 129.973 81.2392 132.018 81.2392 134.541C81.2392 137.063 82.606 139.108 84.292 139.108Z" fill="url(#paint7_radial_1_2)"/>
<path opacity="0.73" d="M84.3852 138.402C82.9573 138.402 81.8025 136.77 81.8025 134.753C81.8025 134.239 81.8783 133.748 82.0148 133.303C81.8133 133.823 81.7007 134.417 81.7007 135.048C81.7007 137.065 82.8577 138.701 84.2833 138.701C85.345 138.701 86.2593 137.793 86.6558 136.497C86.2182 137.635 85.3645 138.402 84.3852 138.402Z" fill="#021B7C"/>
<path d="M86.3323 134.747C87.3987 134.204 87.8231 132.899 87.2802 131.833C86.7373 130.766 85.4327 130.342 84.3664 130.885C83.3 131.428 82.8756 132.732 83.4185 133.799C83.9614 134.865 85.2659 135.29 86.3323 134.747Z" fill="url(#paint8_radial_1_2)"/>
<mask id="mask3_1_2" style="mask-type:luminance" maskUnits="userSpaceOnUse" x="106" y="130" width="8" height="10">
<path d="M110.052 139.39C111.738 139.39 113.104 137.345 113.104 134.822C113.104 132.3 111.738 130.255 110.052 130.255C108.365 130.255 106.999 132.3 106.999 134.822C106.999 137.345 108.365 139.39 110.052 139.39Z" fill="white"/>
</mask>
<g mask="url(#mask3_1_2)">
<path d="M106.999 139.422H113.107V139.481H106.999V139.422ZM106.999 139.16H113.107V139.377H106.999V139.16ZM106.999 138.402H113.107V139.16H106.999V138.402ZM113.107 138.408H106.999V138.191H113.107V138.408ZM113.107 138.191H106.999V130.255H113.107V138.191Z" fill="#20C7F5"/>
</g>
<path d="M110.052 139.108C111.738 139.108 113.104 137.063 113.104 134.541C113.104 132.018 111.738 129.973 110.052 129.973C108.365 129.973 106.999 132.018 106.999 134.541C106.999 137.063 108.365 139.108 110.052 139.108Z" fill="url(#paint9_radial_1_2)"/>
<path opacity="0.73" d="M110.145 138.402C108.717 138.402 107.562 136.77 107.562 134.753C107.562 134.239 107.638 133.748 107.774 133.303C107.573 133.823 107.46 134.417 107.46 135.048C107.46 137.065 108.617 138.701 110.043 138.701C111.105 138.701 112.019 137.793 112.415 136.497C111.978 137.635 111.124 138.402 110.145 138.402Z" fill="#021B7C"/>
<path d="M112.092 134.747C113.158 134.204 113.583 132.899 113.04 131.833C112.497 130.766 111.192 130.342 110.126 130.885C109.059 131.428 108.635 132.732 109.178 133.799C109.721 134.865 111.025 135.29 112.092 134.747Z" fill="url(#paint10_radial_1_2)"/>
</g>
<path d="M262.245 154.549L262.74 152.81C263.34 150.751 263.116 148.835 262.116 147.439C261.197 146.149 259.667 145.392 257.806 145.298L222.603 144.848C222.368 144.836 222.168 144.73 222.05 144.552C221.932 144.375 221.897 144.138 221.98 143.913C222.097 143.57 222.439 143.298 222.792 143.286L258.313 142.837C262.528 142.648 267.084 139.205 268.685 135.017L270.71 129.693C270.769 129.551 270.793 129.398 270.793 129.244C270.793 129.161 270.781 129.078 270.769 128.995C268.485 118.597 259.243 110.824 248.211 110.824C238.039 110.824 229.397 117.425 226.3 126.594C224.299 125.091 221.744 124.287 218.989 124.559C214.103 125.044 210.182 128.995 209.7 133.905C209.57 135.183 209.676 136.401 209.97 137.56C202 137.797 195.607 144.363 195.607 152.419C195.607 153.153 195.666 153.863 195.76 154.572C195.807 154.916 196.101 155.164 196.443 155.164L261.421 155.176C261.433 155.176 261.433 155.176 261.444 155.176C261.81 155.164 262.139 154.916 262.245 154.549Z" fill="#F6821F"/>
<path d="M273.972 130.086C273.642 130.086 273.324 130.098 272.995 130.109C272.936 130.109 272.889 130.121 272.842 130.145C272.677 130.204 272.536 130.346 272.489 130.524L271.099 135.327C270.499 137.385 270.723 139.301 271.723 140.697C272.642 141.987 274.172 142.744 276.032 142.839L283.532 143.288C283.756 143.3 283.944 143.407 284.062 143.584C284.191 143.762 284.215 143.998 284.144 144.223C284.027 144.566 283.685 144.838 283.332 144.85L275.538 145.299C271.311 145.501 266.743 148.931 265.142 153.119L264.577 154.598C264.471 154.87 264.671 155.154 264.942 155.166C264.953 155.166 264.953 155.166 264.965 155.166H291.797C292.115 155.166 292.398 154.953 292.492 154.645C292.963 152.977 293.21 151.226 293.21 149.405C293.21 138.746 284.592 130.086 273.972 130.086Z" fill="#FBAD41"/>
<path d="M395.344 125.937L403.59 138.306C403.867 138.722 404.242 139.063 404.682 139.298C405.122 139.534 405.614 139.658 406.114 139.658C406.613 139.658 407.105 139.534 407.545 139.298C407.985 139.063 408.36 138.722 408.637 138.306L415.984 127.285C416.649 126.286 417.002 125.113 417 123.914C416.998 122.715 416.64 121.544 415.972 120.548L407.904 108.532C407.35 107.706 406.6 107.029 405.722 106.561C404.844 106.093 403.864 105.848 402.869 105.848H385.079C383.058 105.848 381.169 106.854 380.042 108.532L372.884 119.192C371.532 121.207 372.977 123.911 375.403 123.911H391.559C393.082 123.911 394.501 124.672 395.344 125.937ZM380.472 140.063L372.227 127.693C371.951 127.277 371.575 126.936 371.135 126.7C370.695 126.464 370.203 126.341 369.704 126.341C369.204 126.341 368.713 126.464 368.272 126.7C367.832 126.936 367.457 127.277 367.18 127.693L359.833 138.716C359.168 139.714 358.815 140.886 358.817 142.086C358.819 143.285 359.176 144.456 359.844 145.452L367.912 157.468C368.467 158.294 369.216 158.972 370.095 159.44C370.973 159.908 371.953 160.152 372.948 160.152H390.739C391.734 160.152 392.714 159.907 393.592 159.439C394.47 158.971 395.219 158.294 395.774 157.468L402.932 146.806C404.285 144.793 402.841 142.088 400.414 142.088H384.258C383.509 142.088 382.772 141.903 382.111 141.55C381.451 141.196 380.888 140.686 380.472 140.063Z" fill="#9667FF"/>
<path d="M382.354 106.493C381.421 106.962 380.625 107.664 380.042 108.531L372.884 119.192C371.532 121.205 372.975 123.911 375.402 123.911H391.559C392.957 123.911 394.268 124.553 395.126 125.638L382.354 106.493ZM393.463 159.507C394.396 159.038 395.193 158.336 395.775 157.469L402.934 146.808C404.285 144.795 402.842 142.089 400.416 142.089H384.258C383.572 142.089 382.895 141.933 382.277 141.634C381.66 141.335 381.118 140.9 380.692 140.362L393.463 159.508V159.507Z" fill="#783BFF"/>
<path fill-rule="evenodd" clip-rule="evenodd" d="M146 133C146 132.691 146.121 132.394 146.337 132.175C146.552 131.956 146.845 131.833 147.15 131.833H165.072L157.835 124.494C157.619 124.275 157.498 123.978 157.498 123.668C157.498 123.358 157.619 123.061 157.835 122.842C158.051 122.623 158.344 122.5 158.649 122.5C158.954 122.5 159.247 122.623 159.463 122.842L168.662 132.174C168.769 132.282 168.854 132.411 168.912 132.553C168.97 132.695 169 132.847 169 133C169 133.153 168.97 133.305 168.912 133.447C168.854 133.589 168.769 133.718 168.662 133.826L159.463 143.158C159.247 143.377 158.954 143.5 158.649 143.5C158.344 143.5 158.051 143.377 157.835 143.158C157.619 142.939 157.498 142.642 157.498 142.332C157.498 142.022 157.619 141.725 157.835 141.506L165.072 134.167H147.15C146.845 134.167 146.552 134.044 146.337 133.825C146.121 133.606 146 133.309 146 133Z" fill="white" fill-opacity="0.9"/>
<path fill-rule="evenodd" clip-rule="evenodd" d="M313 133C313 132.691 313.121 132.394 313.337 132.175C313.552 131.956 313.845 131.833 314.15 131.833H332.072L324.835 124.494C324.619 124.275 324.498 123.978 324.498 123.668C324.498 123.358 324.619 123.061 324.835 122.842C325.051 122.623 325.344 122.5 325.649 122.5C325.954 122.5 326.247 122.623 326.463 122.842L335.662 132.174C335.769 132.282 335.854 132.411 335.912 132.553C335.97 132.695 336 132.847 336 133C336 133.153 335.97 133.305 335.912 133.447C335.854 133.589 335.769 133.718 335.662 133.826L326.463 143.158C326.247 143.377 325.954 143.5 325.649 143.5C325.344 143.5 325.051 143.377 324.835 143.158C324.619 142.939 324.498 142.642 324.498 142.332C324.498 142.022 324.619 141.725 324.835 141.506L332.072 134.167H314.15C313.845 134.167 313.552 134.044 313.337 133.825C313.121 133.606 313 133.309 313 133Z" fill="white" fill-opacity="0.9"/>
</g>
<defs>
<filter id="filter0_f_1_2" x="-136" y="-136" width="754" height="538" filterUnits="userSpaceOnUse" color-interpolation-filters="sRGB">
<feFlood flood-opacity="0" result="BackgroundImageFix"/>
<feBlend mode="normal" in="SourceGraphic" in2="BackgroundImageFix" result="shape"/>
<feGaussianBlur stdDeviation="18" result="effect1_foregroundBlur_1_2"/>
</filter>
<linearGradient id="paint0_linear_1_2" x1="-36" y1="-36" x2="518" y2="-36" gradientUnits="userSpaceOnUse">
<stop offset="0.197115" stop-color="#5688FF" stop-opacity="0.2"/>
<stop offset="0.504808" stop-color="#F88B2E" stop-opacity="0.2"/>
<stop offset="0.798077" stop-color="#A57DFF" stop-opacity="0.2"/>
</linearGradient>
<radialGradient id="paint1_radial_1_2" cx="0" cy="0" r="1" gradientUnits="userSpaceOnUse" gradientTransform="translate(6396.25 814.129) scale(4889.86 4889.69)">
<stop stop-color="#F8FAFF"/>
<stop offset="0.40366" stop-color="#E0EFFF"/>
<stop offset="0.8653" stop-color="#5682B4"/>
<stop offset="1" stop-color="#4071AD"/>
</radialGradient>
<radialGradient id="paint2_radial_1_2" cx="0" cy="0" r="1" gradientUnits="userSpaceOnUse" gradientTransform="translate(3410.26 517.128) scale(4970.94 4970.73)">
<stop stop-color="#F1F2F2"/>
<stop offset="0.77" stop-color="#1C396E"/>
<stop offset="1" stop-color="white"/>
</radialGradient>
<radialGradient id="paint3_radial_1_2" cx="0" cy="0" r="1" gradientUnits="userSpaceOnUse" gradientTransform="translate(3315.16 506.215) scale(4832.63 4832.48)">
<stop stop-color="#F1F2F2"/>
<stop offset="0.77" stop-color="#1C396E"/>
<stop offset="1" stop-color="#6374A7"/>
</radialGradient>
<linearGradient id="paint4_linear_1_2" x1="969.207" y1="3810.43" x2="5112.42" y2="1082.76" gradientUnits="userSpaceOnUse">
<stop stop-color="#1C396E"/>
<stop offset="1" stop-color="white"/>
</linearGradient>
<radialGradient id="paint5_radial_1_2" cx="0" cy="0" r="1" gradientUnits="userSpaceOnUse" gradientTransform="translate(2280.61 2276.42) scale(2871.17 2871.22)">
<stop stop-color="#01D1FE"/>
<stop offset="0.17" stop-color="#00CDFD"/>
<stop offset="0.33" stop-color="#00C2FB"/>
<stop offset="0.48" stop-color="#00AFF8"/>
<stop offset="0.63" stop-color="#0095F4"/>
<stop offset="0.69" stop-color="#0088F2"/>
<stop offset="1" stop-color="#002A90"/>
</radialGradient>
<radialGradient id="paint6_radial_1_2" cx="0" cy="0" r="1" gradientUnits="userSpaceOnUse" gradientTransform="translate(438.15 688.65) scale(420.946 420.888)">
<stop stop-color="#00217D"/>
<stop offset="1" stop-color="#00104E"/>
</radialGradient>
<radialGradient id="paint7_radial_1_2" cx="0" cy="0" r="1" gradientUnits="userSpaceOnUse" gradientTransform="translate(386.523 -2024.5) scale(0)">
<stop stop-color="#001F5C"/>
<stop offset="1" stop-color="#000B34"/>
</radialGradient>
<radialGradient id="paint8_radial_1_2" cx="0" cy="0" r="1" gradientUnits="userSpaceOnUse" gradientTransform="translate(264.64 -86.8463) rotate(-97.6467) scale(193.124 257.574)">
<stop stop-color="white" stop-opacity="0.4"/>
<stop offset="1" stop-color="#F8FAFF" stop-opacity="0"/>
</radialGradient>
<radialGradient id="paint9_radial_1_2" cx="0" cy="0" r="1" gradientUnits="userSpaceOnUse" gradientTransform="translate(412.282 -2024.5) scale(0)">
<stop stop-color="#001F5C"/>
<stop offset="1" stop-color="#000B34"/>
</radialGradient>
<radialGradient id="paint10_radial_1_2" cx="0" cy="0" r="1" gradientUnits="userSpaceOnUse" gradientTransform="translate(290.4 -86.8463) rotate(-97.6467) scale(193.124 257.574)">
<stop stop-color="white" stop-opacity="0.4"/>
<stop offset="1" stop-color="#F8FAFF" stop-opacity="0"/>
</radialGradient>
<clipPath id="clip0_1_2">
<rect width="482" height="266" fill="white"/>
</clipPath>
<clipPath id="clip1_1_2">
<rect width="65" height="65" fill="white" transform="translate(65 100.5)"/>
</clipPath>
</defs>
</svg>
