<svg width="964" height="532" viewBox="0 0 964 532" fill="none" xmlns="http://www.w3.org/2000/svg">
<style>
.text {
  fill: black;
  @media (prefers-color-scheme: dark) {
    fill: white;
  }
}
</style>
<path class="text" d="M197.185 207.636V219.568H143.264V207.636H197.185ZM249.756 341.5L212.256 202.182H227.426L264.926 341.5H249.756ZM341.688 324V338.432H267.767V324H341.688ZM357.895 275.705C357.895 261.462 359.77 248.356 363.52 236.386C367.27 224.417 372.743 213.375 379.94 203.261H395.509C392.705 207.011 390.092 211.614 387.668 217.068C385.243 222.523 383.122 228.508 381.304 235.023C379.486 241.5 378.065 248.223 377.043 255.193C376.02 262.125 375.509 268.962 375.509 275.705C375.509 284.72 376.399 293.848 378.179 303.091C379.959 312.333 382.365 320.913 385.395 328.83C388.425 336.746 391.796 343.205 395.509 348.205H379.94C372.743 338.091 367.27 327.049 363.52 315.08C359.77 303.11 357.895 289.985 357.895 275.705ZM476.08 201.76C477.04 203.68 478.267 206.507 479.76 210.24C481.36 213.973 482.96 218.027 484.56 222.4C486.267 226.667 487.813 230.773 489.2 234.72C490.587 238.667 491.653 241.813 492.4 244.16L476.56 249.76C475.92 247.307 474.907 244.16 473.52 240.32C472.133 236.48 470.64 232.427 469.04 228.16C467.547 223.893 466 219.893 464.4 216.16C462.907 212.32 461.627 209.28 460.56 207.04L476.08 201.76ZM548.08 213.12C547.44 214.72 546.8 216.533 546.16 218.56C545.52 220.48 545.04 222.187 544.72 223.68C543.12 229.973 541.04 236.693 538.48 243.84C536.027 250.88 533.093 257.867 529.68 264.8C526.267 271.627 522.373 277.973 518 283.84C512.453 291.093 506.213 297.707 499.28 303.68C492.453 309.653 485.307 314.933 477.84 319.52C470.373 324 462.8 327.573 455.12 330.24L441.2 316.16C448.667 313.92 456.187 310.88 463.76 307.04C471.333 303.093 478.587 298.347 485.52 292.8C492.56 287.253 498.747 281.067 504.08 274.24C508.24 268.907 512.027 262.613 515.44 255.36C518.853 248.107 521.733 240.373 524.08 232.16C526.533 223.947 528.293 215.84 529.36 207.84L548.08 213.12ZM431.6 211.52C432.667 213.867 434.053 216.96 435.76 220.8C437.467 224.64 439.173 228.8 440.88 233.28C442.693 237.653 444.4 241.867 446 245.92C447.6 249.867 448.88 253.173 449.84 255.84L433.68 261.76C433.04 259.733 432.133 257.173 430.96 254.08C429.893 250.88 428.613 247.52 427.12 244C425.733 240.373 424.293 236.8 422.8 233.28C421.307 229.76 419.92 226.613 418.64 223.84C417.36 220.96 416.347 218.773 415.6 217.28L431.6 211.52ZM606.091 275.705C606.091 289.985 604.216 303.11 600.466 315.08C596.716 327.049 591.242 338.091 584.045 348.205H568.477C571.28 344.455 573.894 339.852 576.318 334.398C578.742 328.943 580.864 322.977 582.682 316.5C584.5 309.985 585.92 303.242 586.943 296.273C587.966 289.303 588.477 282.447 588.477 275.705C588.477 266.727 587.587 257.617 585.807 248.375C584.027 239.133 581.621 230.553 578.591 222.636C575.561 214.72 572.189 208.261 568.477 203.261H584.045C591.242 213.375 596.716 224.417 600.466 236.386C604.216 248.356 606.091 261.462 606.091 275.705ZM696.219 324V338.432H622.298V324H696.219ZM751.801 202.182L714.301 341.5H699.131L736.631 202.182H751.801ZM820.778 207.636V219.568H766.858V207.636H820.778Z"/>
</svg>
